<?xml version="1.0" encoding="UTF-8"?>
<svg viewBox="0 0 3600 2338" xmlns="http://www.w3.org/2000/svg">
    <path id="Rectangle" fill="#000000" fill-rule="evenodd" stroke="none" d="M 0 2338 L 185 2338 L 185 0 L 0 0 Z"/>
    <path id="Rectangle-copy" fill="#000000" fill-rule="evenodd" stroke="none" d="M 3415 2338 L 3415 2153 L 185 2153 L 185 2338 Z"/>
    <path id="Rectangle-copy-3" fill="#000000" fill-rule="evenodd" stroke="none" d="M 3415 185 L 3415 0 L 185 0 L 185 185 Z"/>
    <path id="Rectangle-copy-2" fill="#000000" fill-rule="evenodd" stroke="none" d="M 3415 2338 L 3600 2338 L 3600 0 L 3415 0 Z"/>
    <path id="Rectangle-copy-6" fill="#ffe500" fill-rule="evenodd" stroke="none" d="M 3468.739014 2460.260986 L 3599.553711 2329.446289 L 1149.553833 -120.553955 L 1018.739075 10.260986 Z"/>
    <path id="Rectangle-copy-7" fill="#ffe500" fill-rule="evenodd" stroke="none" d="M 2121.739014 2673.260986 L 2252.553711 2542.446289 L -197.446182 92.446045 L -328.260956 223.260986 Z"/>
    <path id="Rectangle-copy-8" fill="#ffe500" fill-rule="evenodd" stroke="none" d="M 1992.739014 3047.260986 L 2123.553711 2916.446289 L -326.446198 466.446167 L -457.260956 597.260864 Z"/>
    <path id="Rectangle-copy-9" fill="#ffe500" fill-rule="evenodd" stroke="none" d="M 1492.739014 3047.260986 L 1623.553833 2916.446289 L -826.446167 466.446167 L -957.260925 597.260864 Z"/>
    <path id="Rectangle-copy-16" fill="#ffe500" fill-rule="evenodd" stroke="none" d="M 1251.739014 3260.260986 L 1382.553833 3129.446289 L -1067.446167 679.446167 L -1198.260986 810.260864 Z"/>
    <path id="Rectangle-copy-10" fill="#ffe500" fill-rule="evenodd" stroke="none" d="M 2988.739014 2474.260986 L 3119.553711 2343.446289 L 641.053772 -135.053955 L 510.238983 -4.239258 Z"/>
    <path id="Rectangle-copy-11" fill="#ffe500" fill-rule="evenodd" stroke="none" d="M 2476.239014 2473.760986 L 2607.053711 2342.946289 L 112.053787 -152.053955 L -18.760967 -21.239014 Z"/>
    <path id="Rectangle-copy-12" fill="#ffe500" fill-rule="evenodd" stroke="none" d="M 3765.739014 2245.260986 L 3896.553711 2114.446289 L 1446.553833 -335.553955 L 1315.739014 -204.739014 Z"/>
    <path id="Rectangle-copy-13" fill="#ffe500" fill-rule="evenodd" stroke="none" d="M 3949.739014 1890.260986 L 4080.553711 1759.446167 L 1630.553833 -690.553955 L 1499.739014 -559.739014 Z"/>
    <path id="Rectangle-copy-14" fill="#ffe500" fill-rule="evenodd" stroke="none" d="M 4249.739258 1654.260986 L 4380.553711 1523.446167 L 1930.553833 -926.553955 L 1799.739014 -795.739014 Z"/>
    <path id="Rectangle-copy-15" fill="#ffe500" fill-rule="evenodd" stroke="none" d="M 4573.739258 1476.260986 L 4704.553711 1345.446167 L 2254.553711 -1104.553955 L 2123.739014 -973.739014 Z"/>
    <text id="text1" xml:space="preserve" x="563.224784" y="902" font-family="Apple Color Emoji" font-size="269" fill="#eaeaea" letter-spacing="-5.449569">🚧</text>
    <text id="text2" xml:space="preserve" x="2794.224784" y="902" font-family="Apple Color Emoji" font-size="269" fill="#eaeaea" letter-spacing="-5.449569">🚧</text>
    <text id="ERROR-404" xml:space="preserve" x="1031.31431" y="913" font-family="Space Mono" font-size="274" font-weight="700" fill="#eaeaea" letter-spacing="-5.550862">ERROR 404!</text>
    <text id="The-page-you-are" xml:space="preserve"><tspan x="333.440086" y="1516" font-family="Space Mono" font-size="99" font-weight="700" fill="#eaeaea" letter-spacing="-2.005603" xml:space="preserve">The page you are looking for is under development</tspan><tspan font-family="Space Mono" font-size="99" font-weight="700" fill="#eaeaea" letter-spacing="-2.005603" xml:space="preserve">.</tspan></text>
</svg>
